<?xml version="1.0" standalone="no"?>
<!DOCTYPE svg PUBLIC "-//W3C//DTD SVG 20010904//EN"
 "http://www.w3.org/TR/2001/REC-SVG-20010904/DTD/svg10.dtd">
<svg version="1.0" xmlns="http://www.w3.org/2000/svg"
 width="330.000000pt" height="260.000000pt" viewBox="0 0 330.000000 260.000000"
 preserveAspectRatio="xMidYMid meet">
<metadata>
Created by potrace 1.14, written by Peter Selinger 2001-2017
</metadata>
<g transform="translate(0.000000,260.000000) scale(0.100000,-0.100000)"
fill="#000000" stroke="none">
<path d="M132 2338 c-7 -7 -12 -19 -12 -28 0 -33 22 -40 132 -40 l108 0 0
-316 c0 -198 4 -322 10 -335 12 -22 59 -26 78 -7 9 9 12 97 12 335 l0 322 111
3 c94 3 114 6 123 21 8 12 8 22 0 35 -10 15 -37 17 -280 20 -201 2 -273 -1
-282 -10z"/>
<path d="M2331 2336 c-8 -9 -11 -114 -9 -366 3 -386 2 -381 61 -366 l27 6 0
364 c0 323 -2 365 -16 370 -26 10 -51 7 -63 -8z"/>
<path d="M970 2121 c-78 -24 -157 -99 -178 -169 -15 -50 -15 -124 0 -174 17
-57 87 -131 150 -158 68 -29 176 -25 233 9 21 12 39 21 40 19 1 -2 8 -13 14
-25 8 -16 21 -23 41 -23 47 0 53 24 48 189 -4 139 -5 149 -33 201 -33 60 -96
114 -153 130 -42 11 -125 12 -162 1z m137 -86 c72 -30 113 -93 113 -170 0
-152 -168 -238 -277 -142 -40 35 -72 97 -73 140 0 63 55 146 115 173 40 18 78
17 122 -1z"/>
<path d="M1503 2114 c-23 -9 -58 -33 -77 -55 -30 -32 -36 -47 -36 -84 0 -73
29 -96 195 -153 150 -50 165 -63 123 -101 -30 -29 -88 -45 -131 -37 -19 4 -55
22 -80 41 -49 38 -77 44 -97 20 -30 -36 31 -103 119 -133 75 -26 181 -11 241
33 44 32 59 60 60 107 0 82 -16 94 -210 162 -68 24 -126 49 -128 55 -6 19 38
60 79 72 52 16 101 4 154 -36 47 -37 73 -43 93 -23 23 23 13 56 -25 87 -71 59
-188 77 -280 45z"/>
<path d="M2542 2118 c-24 -24 -10 -55 73 -153 l84 -99 -43 -51 c-110 -131
-126 -153 -126 -171 0 -26 19 -44 47 -44 16 0 44 26 100 94 43 52 80 95 83 95
3 0 40 -43 83 -95 79 -95 106 -111 135 -82 24 24 11 51 -69 148 -45 54 -82
101 -82 105 0 4 37 51 82 105 80 97 93 124 69 148 -29 29 -57 13 -134 -78 -42
-49 -80 -90 -84 -90 -4 0 -42 41 -84 90 -77 91 -105 107 -134 78z"/>
<path d="M1913 1894 c-7 -3 -13 -19 -13 -35 0 -38 13 -40 175 -37 l130 3 0 35
0 35 -140 2 c-77 1 -146 -1 -152 -3z"/>
<path d="M422 1128 c-7 -7 -12 -19 -12 -28 0 -33 22 -40 132 -40 l108 0 0
-316 c0 -198 4 -322 10 -335 12 -22 59 -26 78 -7 9 9 12 97 12 335 l0 322 111
3 c94 3 114 6 123 21 8 12 8 22 0 35 -10 15 -37 17 -280 20 -201 2 -273 -1
-282 -10z"/>
<path d="M1652 1128 c-9 -9 -12 -82 -12 -268 0 -306 4 -324 85 -398 64 -59
119 -77 208 -70 145 12 240 116 240 264 0 59 -4 79 -29 124 -33 62 -96 114
-157 131 -57 15 -154 6 -204 -20 -23 -11 -45 -21 -48 -21 -3 0 -5 55 -5 123 0
129 -5 147 -45 147 -12 0 -26 -5 -33 -12z m315 -303 c72 -30 113 -93 113 -170
0 -152 -168 -238 -277 -142 -40 35 -72 97 -73 140 0 63 55 146 115 173 40 18
78 17 122 -1z"/>
<path d="M1082 908 c-8 -8 -12 -61 -12 -172 0 -180 9 -213 70 -274 47 -47 86
-64 160 -70 60 -4 92 3 161 32 11 5 18 1 22 -13 4 -15 13 -21 34 -21 52 0 53
5 53 266 0 264 -1 269 -57 262 l-28 -3 -5 -160 c-6 -175 -13 -201 -70 -248
-74 -63 -185 -35 -229 57 -18 37 -21 61 -21 187 0 152 -4 169 -45 169 -12 0
-26 -5 -33 -12z"/>
<path d="M2425 907 c-54 -14 -146 -107 -163 -163 -31 -107 -9 -198 68 -274 78
-79 174 -101 281 -65 45 15 99 57 99 76 0 50 -55 64 -101 24 -71 -59 -168 -40
-237 49 -43 56 -42 56 188 56 200 0 210 1 220 20 26 49 -28 184 -93 234 -68
52 -167 68 -262 43z m160 -87 c42 -20 78 -60 95 -105 l10 -25 -170 0 c-112 0
-170 4 -170 10 0 19 27 64 52 87 59 55 116 66 183 33z"/>
</g>
</svg>
