<?xml version="1.0" encoding="UTF-8"?>
<!DOCTYPE svg PUBLIC "-//W3C//DTD SVG 1.1//EN" "http://www.w3.org/Graphics/SVG/1.1/DTD/svg11.dtd">
<!-- Creator: CorelDRAW X8 -->
<svg xmlns="http://www.w3.org/2000/svg" xml:space="preserve" width="210mm" height="297mm" version="1.1" style="shape-rendering:geometricPrecision; text-rendering:geometricPrecision; image-rendering:optimizeQuality; fill-rule:evenodd; clip-rule:evenodd"
viewBox="0 0 21000 29700"
 xmlns:xlink="http://www.w3.org/1999/xlink">
 <defs>
  <style type="text/css">
   <![CDATA[
    .fil0 {fill:#E84B3C}
   ]]>
  </style>
 </defs>
 <g id="Слой_x0020_1">
  <metadata id="CorelCorpID_0Corel-Layer"/>
  <g id="_2145687443648">
   <path class="fil0" d="M5145 11188c-25,25 -42,67 -42,99 0,116 77,141 465,141l381 0 0 1115c0,698 14,1136 35,1182 43,77 209,91 276,24 31,-31 42,-342 42,-1181l0 -1136 392 -11c331,-11 402,-21 433,-74 29,-42 29,-78 0,-124 -35,-52 -130,-60 -987,-70 -709,-7 -963,3 -995,35l0 0z"/>
   <path class="fil0" d="M12902 11195c-28,32 -38,402 -31,1291 10,1362 7,1344 215,1292l95 -22 0 -1284c0,-1139 -7,-1287 -56,-1305 -92,-35 -180,-25 -223,28z"/>
   <path class="fil0" d="M8101 11954c-275,84 -554,349 -628,596 -53,176 -53,437 0,614 60,201 307,462 529,557 240,102 621,88 822,-32 74,-42 138,-74 141,-67 4,7 29,46 50,89 28,56 74,81 144,81 166,0 187,-85 170,-667 -14,-490 -18,-526 -117,-709 -116,-212 -338,-402 -539,-459 -149,-39 -441,-42 -572,-3l0 0zm483 303c254,106 399,328 399,600 0,536 -593,839 -977,501 -141,-124 -254,-342 -258,-494 0,-222 194,-515 406,-610 141,-64 275,-60 430,3l0 0z"/>
   <path class="fil0" d="M9981 11978c-81,32 -204,117 -271,194 -106,113 -127,166 -127,297 0,257 102,338 688,540 529,176 582,222 434,356 -106,102 -311,159 -463,130 -67,-14 -194,-77 -282,-144 -173,-134 -271,-156 -342,-71 -106,127 109,364 420,469 264,92 638,39 850,-116 155,-113 208,-212 212,-378 0,-289 -57,-331 -741,-571 -240,-85 -445,-173 -452,-194 -21,-67 134,-212 279,-254 183,-57 356,-14 543,127 166,130 258,152 328,81 82,-81 46,-198 -88,-307 -250,-208 -663,-272 -988,-159l0 0z"/>
   <path class="fil0" d="M13647 11964c-85,85 -35,194 257,540l297 349 -152 180c-388,462 -445,540 -445,603 0,92 67,156 166,156 57,0 155,-92 353,-332 152,-183 282,-335 293,-335 10,0 141,152 293,335 278,335 374,392 476,289 85,-84 39,-180 -244,-522 -158,-190 -289,-356 -289,-370 0,-14 131,-180 289,-371 283,-342 329,-437 244,-522 -102,-102 -201,-46 -473,275 -148,173 -282,318 -296,318 -14,0 -148,-145 -296,-318 -272,-321 -371,-377 -473,-275l0 0z"/>
   <path class="fil0" d="M11428 12755c-25,10 -46,67 -46,123 0,134 46,141 617,131l459 -11 0 -124 0 -123 -494 -7c-272,-4 -515,3 -536,11z"/>
   <path class="fil0" d="M6168 15457c-25,24 -42,67 -42,99 0,116 77,141 465,141l381 0 0 1114c0,699 14,1136 36,1182 42,78 208,92 275,25 31,-32 42,-342 42,-1182l0 -1136 392 -10c331,-11 402,-22 434,-74 28,-43 28,-78 0,-124 -36,-53 -131,-60 -988,-70 -709,-8 -963,3 -995,35l0 0z"/>
   <path class="fil0" d="M10507 15457c-32,32 -42,289 -42,945 0,1080 14,1143 300,1404 225,208 419,272 733,247 512,-42 847,-409 847,-931 0,-208 -14,-279 -102,-438 -117,-218 -339,-402 -554,-462 -201,-53 -543,-21 -720,71 -81,39 -159,74 -169,74 -11,0 -18,-194 -18,-434 0,-455 -17,-519 -159,-519 -42,0 -91,18 -116,43zm1111 1069c254,106 399,328 399,599 0,537 -593,840 -977,501 -141,-123 -254,-342 -258,-494 0,-222 194,-515 406,-610 141,-63 275,-60 430,4l0 0z"/>
   <path class="fil0" d="M8496 16233c-28,28 -42,215 -42,607 0,635 32,751 247,966 166,166 303,226 564,247 212,14 325,-10 568,-113 39,-17 64,-3 78,46 14,53 46,74 120,74 183,0 187,-17 187,-938 0,-931 -4,-949 -201,-924l-99 10 -18 565c-21,617 -46,709 -247,875 -261,222 -652,123 -808,-202 -63,-130 -74,-215 -74,-659 0,-536 -14,-596 -158,-596 -43,0 -92,17 -117,42l0 0z"/>
   <path class="fil0" d="M13234 16236c-190,50 -515,378 -575,575 -109,378 -32,699 240,967 275,279 614,356 991,229 159,-53 349,-201 349,-268 0,-176 -194,-226 -356,-84 -250,208 -593,141 -836,-173 -152,-198 -148,-198 663,-198 706,0 741,-3 776,-70 92,-173 -98,-649 -328,-826 -240,-183 -589,-240 -924,-152zm564 307c149,71 276,212 336,371l35 88 -600 0c-395,0 -600,-14 -600,-35 0,-67 96,-226 184,-307 208,-194 409,-233 645,-117l0 0z"/>
  </g>
 </g>
</svg>
